# xmcd
#
# Track frame offsets: 
#        150
#        14162
#        25177
#        34285
#        50055
#        59093
#        69524
#        82342
#        99374
#        109126
#        122266
#        134073
#        146324
#        157339
#        169208
#        179335
#        189601
#        201330
#        214809
#        226973
#        238989
#        254994
#        270075
#        279976
#
# Disc length: 3892 seconds
#
# Revision: 0
# Processed by: cddbd v1.5.2PL0 Copyright (c) Steve Scherf et al.
# Submitted via: ExactAudioCopy v0.99pb4
#
DISCID=7b0f3218
DTITLE=Various Artist - Riders In The Sky Mania
DYEAR=2004
DGENRE=Western
TTITLE0=Gods Riders In The Sky. Matilda
TTITLE1=Gods Riders In The Sky. The Ventures 
TTITLE2=Gods Riders In The Sky. The Spotnicks
TTITLE3=Gods Riders In The Sky. The Shadows
TTITLE4=Gods Riders In The Sky. Ricky King
TTITLE5=Gods Riders In The Sky. The Scorpions
TTITLE6=Gods Riders In The Sky. The Shantais
TTITLE7=Gods Riders In The Sky. The Apaches
TTITLE8=Gods Riders In The Sky. Les Champions
TTITLE9=Gods Riders In The Sky. Les Sunlights
TTITLE10=Gods Riders In The Sky. Burt Blanca
TTITLE11=Gods Riders In The Sky. The Trashmen
TTITLE12=Gods Riders In The Sky. The Jumping Jewels
TTITLE13=Gods Riders In The Sky. The Ramrods
TTITLE14=Gods Riders In The Sky. The Blue Stars
TTITLE15=Gods Riders In The Sky. The Nightrunners
TTITLE16=Gods Riders In The Sky. Les Bourgeois De Calais
TTITLE17=Gods Riders In The Sky. Atlantis Five
TTITLE18=Gods Riders In The Sky. The Spotnicks
TTITLE19=Gods Riders In The Sky. Electric Sound Orchestra
TTITLE20=Gods Riders In The Sky. Frank Gibson
TTITLE21=Gods Riders In The Sky. The Shadows
TTITLE22=Gods Riders In The Sky. The Ventures
TTITLE23=Gods Riders In The Sky. The Spotnicks
EXTD=
EXTT0=
EXTT1=
EXTT2=
EXTT3=
EXTT4=
EXTT5=
EXTT6=
EXTT7=
EXTT8=
EXTT9=
EXTT10=
EXTT11=
EXTT12=
EXTT13=
EXTT14=
EXTT15=
EXTT16=
EXTT17=
EXTT18=
EXTT19=
EXTT20=
EXTT21=
EXTT22=
EXTT23=
PLAYORDER=
